<svg width="30" height="30" viewBox="0 0 30 30" fill="none" xmlns="http://www.w3.org/2000/svg">
<circle cx="6" cy="15" r="6" fill="white"/>
<circle cx="23" cy="14" r="7" fill="white"/>
<path d="M6 13H23V21H6L6 13Z" fill="white"/>
<circle cx="12.5" cy="8.5" r="6.5" fill="white"/>
<path fill-rule="evenodd" clip-rule="evenodd" d="M10.3175 22.476C10.3948 22.1815 10.1746 21.8931 9.87242 21.8931H5.42519C5.00867 21.8931 4.80625 21.38 5.10904 21.0917L14.0693 12.5601C14.4066 12.239 14.9499 12.5653 14.8303 13.0171L13.7141 17.2325C13.636 17.5271 13.8563 17.8162 14.1589 17.8162H18.6098C19.0244 17.8162 19.2277 18.3254 18.9287 18.615L9.92512 27.3334C9.58948 27.6584 9.04201 27.3335 9.16109 26.88L10.3175 22.476Z" fill="#F8D431"/>
<rect x="17.2476" y="22.7627" width="1.75" height="6" rx="0.875" transform="rotate(22.0003 17.2476 22.7627)" fill="white"/>
<rect x="21.3892" y="22.75" width="1.75" height="6" rx="0.875" transform="rotate(22.0003 21.3892 22.75)" fill="white"/>
</svg>
