<svg width="30" height="27" viewBox="0 0 30 27" fill="none" xmlns="http://www.w3.org/2000/svg">
<g clip-path="url(#clip0_324_86180)">
<path d="M10.0569 10.5579C10.2351 10.5132 10.4133 10.5579 10.5692 10.6697C11.1482 11.1617 11.8164 11.5643 12.5513 11.8327C13.2417 12.101 13.9989 12.2352 14.8007 12.2352C16.6047 12.2352 18.2527 11.4972 19.4331 10.3119C20.6135 9.12656 21.3484 7.47159 21.3484 5.66007C21.3484 4.89968 21.2148 4.16166 20.9921 3.49072C20.7471 2.77506 20.3907 2.12649 19.9231 1.56738C19.7226 1.32137 19.7672 0.963543 20.0121 0.762263C20.168 0.650441 20.3462 0.605712 20.5244 0.650441C22.4174 1.16482 24.0655 2.30541 25.2458 3.82619C26.3817 5.32461 27.0498 7.18085 27.0498 9.19365C27.0498 11.6314 26.0699 13.8455 24.4664 15.4557C22.8628 17.0659 20.6803 18.05 18.2304 18.05C16.1815 18.05 14.2885 17.3343 12.774 16.149C11.2373 14.9413 10.1238 13.2193 9.65607 11.2512C9.56699 10.9381 9.74515 10.625 10.0569 10.5579Z" fill="#F8D432"/>
</g>
<circle cx="6" cy="20.5" r="6" fill="white"/>
<circle cx="23" cy="19.5" r="7" fill="white"/>
<path d="M6 18.5H23V26.5H6L6 18.5Z" fill="white"/>
<circle cx="12.5" cy="14" r="6.5" fill="white"/>
<defs>
<clipPath id="clip0_324_86180">
<rect width="19" height="19" fill="white" transform="translate(9)"/>
</clipPath>
</defs>
</svg>
