<svg width="30" height="30" viewBox="0 0 30 30" fill="none" xmlns="http://www.w3.org/2000/svg">
<path d="M23 15C23 19.4183 19.4183 23 15 23C10.5817 23 7 19.4183 7 15C7 10.5817 10.5817 7 15 7C19.4183 7 23 10.5817 23 15Z" fill="#FDC513"/>
<path d="M13.5 1.25C13.5 0.559644 14.0596 0 14.75 0C15.4404 0 16 0.559644 16 1.25V3.75C16 4.44036 15.4404 5 14.75 5C14.0596 5 13.5 4.44036 13.5 3.75V1.25Z" fill="#FDC513"/>
<path d="M13.5 26.25C13.5 25.5596 14.0596 25 14.75 25C15.4404 25 16 25.5596 16 26.25V28.75C16 29.4404 15.4404 30 14.75 30C14.0596 30 13.5 29.4404 13.5 28.75V26.25Z" fill="#FDC513"/>
<path d="M4.1434 6.16117C3.65524 5.67301 3.65524 4.88155 4.1434 4.3934C4.63155 3.90524 5.42301 3.90524 5.91116 4.3934L7.67893 6.16117C8.16709 6.64932 8.16709 7.44078 7.67893 7.92893C7.19078 8.41709 6.39932 8.41709 5.91116 7.92893L4.1434 6.16117Z" fill="#FDC513"/>
<path d="M21.8211 23.8388C21.3329 23.3507 21.3329 22.5592 21.8211 22.0711C22.3092 21.5829 23.1007 21.5829 23.5888 22.0711L25.3566 23.8388C25.8448 24.327 25.8448 25.1184 25.3566 25.6066C24.8684 26.0948 24.077 26.0948 23.5888 25.6066L21.8211 23.8388Z" fill="#FDC513"/>
<path d="M1.25 16.25C0.559644 16.25 0 15.6904 0 15C0 14.3096 0.559644 13.75 1.25 13.75H3.75C4.44036 13.75 5 14.3096 5 15C5 15.6904 4.44036 16.25 3.75 16.25H1.25Z" fill="#FDC513"/>
<path d="M26.25 16.25C25.5596 16.25 25 15.6904 25 15C25 14.3096 25.5596 13.75 26.25 13.75H28.75C29.4404 13.75 30 14.3096 30 15C30 15.6904 29.4404 16.25 28.75 16.25H26.25Z" fill="#FDC513"/>
<path d="M5.91093 25.6067C5.42277 26.0948 4.63131 26.0948 4.14316 25.6067C3.655 25.1185 3.655 24.3271 4.14316 23.8389L5.91093 22.0711C6.39908 21.583 7.19054 21.583 7.67869 22.0711C8.16685 22.5593 8.16685 23.3507 7.67869 23.8389L5.91093 25.6067Z" fill="#FDC513"/>
<path d="M23.5886 7.92899C23.1004 8.41715 22.309 8.41715 21.8208 7.92899C21.3327 7.44084 21.3327 6.64938 21.8208 6.16123L23.5886 4.39346C24.0767 3.90531 24.8682 3.90531 25.3564 4.39346C25.8445 4.88162 25.8445 5.67307 25.3564 6.16123L23.5886 7.92899Z" fill="#FDC513"/>
</svg>
