<svg width="32" height="32" viewBox="0 0 32 32" fill="none" xmlns="http://www.w3.org/2000/svg">
<path fill-rule="evenodd" clip-rule="evenodd" d="M0.871948 4.36808C0 6.07937 0 8.31958 0 12.8V19.2C0 23.6804 0 25.9206 0.871948 27.6319C1.63893 29.1372 2.86278 30.3611 4.36808 31.1281C6.07937 32 8.31958 32 12.8 32H19.2C23.6804 32 25.9206 32 27.6319 31.1281C29.1372 30.3611 30.3611 29.1372 31.1281 27.6319C32 25.9206 32 23.6804 32 19.2V12.8C32 8.31958 32 6.07937 31.1281 4.36808C30.3611 2.86278 29.1372 1.63893 27.6319 0.871948C25.9206 0 23.6804 0 19.2 0H12.8C8.31958 0 6.07937 0 4.36808 0.871948C2.86278 1.63893 1.63893 2.86278 0.871948 4.36808ZM27.1368 9.06237C27.8866 9.81216 27.8866 11.0278 27.1368 11.7776L14.9768 23.9376C14.227 24.6875 13.0113 24.6875 12.2615 23.9376L6.18151 17.8576C5.43168 17.1078 5.43168 15.8922 6.18151 15.1424C6.9313 14.3925 8.14698 14.3925 8.89677 15.1424L13.6191 19.8647L24.4215 9.06237C25.1713 8.31254 26.387 8.31254 27.1368 9.06237Z" fill="white"/>
</svg>
