<svg width="52" height="52" viewBox="0 0 52 52" fill="none" xmlns="http://www.w3.org/2000/svg">
<path fill-rule="evenodd" clip-rule="evenodd" d="M38.9183 24.5567C38.8772 24.1912 38.4512 23.9163 38.0827 23.9163C36.8914 23.9163 35.8343 23.2171 35.3907 22.135C34.9382 21.0269 35.2301 19.7349 36.1177 18.9206C36.3973 18.6651 36.4314 18.2372 36.197 17.9401C35.5872 17.1658 34.8943 16.4662 34.1375 15.8602C33.8414 15.6227 33.4063 15.6557 33.1493 15.9401C32.3747 16.7983 30.9826 17.1172 29.907 16.6684C28.788 16.1976 28.0818 15.0634 28.1512 13.8461C28.1738 13.4635 27.8943 13.1309 27.5131 13.0866C26.5418 12.9741 25.5622 12.9708 24.5882 13.079C24.2117 13.1206 23.932 13.4451 23.9448 13.823C23.9868 15.0285 23.2726 16.1427 22.1644 16.5966C21.1016 17.0307 19.7194 16.7143 18.9462 15.8636C18.6907 15.5834 18.2631 15.5489 17.9652 15.7813C17.1862 16.3926 16.4777 17.0926 15.8622 17.8606C15.6222 18.1592 15.6577 18.5918 15.9397 18.8483C16.8447 19.6679 17.1366 20.9711 16.6665 22.0921C16.2178 23.1609 15.1083 23.8492 13.8381 23.8492C13.4257 23.836 13.1324 24.1128 13.087 24.4878C12.9726 25.4641 12.9713 26.4594 13.0813 27.4438C13.1225 27.8109 13.5613 28.0834 13.934 28.0834C15.0662 28.0545 16.1526 28.755 16.609 29.8646C17.0634 30.9728 16.771 32.2642 15.882 33.0795C15.6037 33.335 15.5683 33.762 15.8031 34.0587C16.4068 34.8282 17.1002 35.5282 17.8594 36.1394C18.1573 36.3794 18.5905 36.3459 18.8489 36.061C19.6269 35.2008 21.0185 34.8825 22.0898 35.3322C23.2121 35.8017 23.9179 36.9358 23.8489 38.1535C23.8262 38.5361 24.1069 38.8696 24.4866 38.9131C24.9836 38.9712 25.4832 39 25.9845 39C26.4602 39 26.9358 38.974 27.4115 38.9212C27.7885 38.8796 28.0677 38.5545 28.0549 38.1766C28.0114 36.9716 28.7271 35.8575 29.8338 35.4044C30.9037 34.9675 32.2798 35.2873 33.0534 36.1365C33.3104 36.4162 33.7351 36.4502 34.0345 36.2188C34.8121 35.609 35.5192 34.9094 36.1375 34.1395C36.3774 33.8414 36.3435 33.4083 36.06 33.1513C35.155 32.3322 34.8616 31.0285 35.3317 29.9085C35.7733 28.8543 36.8418 28.1462 37.9911 28.1462L38.1517 28.1504C38.5248 28.1807 38.8678 27.8935 38.9127 27.5128C39.0274 26.5355 39.0289 25.5412 38.9183 24.5567ZM26.0211 30.364C23.6299 30.364 21.6852 28.4188 21.6852 26.0278C21.6852 23.6367 23.6299 21.6915 26.0211 21.6915C28.4126 21.6915 30.3574 23.6367 30.3574 26.0278C30.3574 28.4188 28.4126 30.364 26.0211 30.364Z" fill="white"/>
</svg>
