<svg width="30" height="30" viewBox="0 0 30 30" fill="none" xmlns="http://www.w3.org/2000/svg">
<path d="M24.8667 12C24.8667 15.2401 22.2401 17.8667 19 17.8667C15.7599 17.8667 13.1333 15.2401 13.1333 12C13.1333 8.75993 15.7599 6.13333 19 6.13333C22.2401 6.13333 24.8667 8.75993 24.8667 12Z" fill="#FDC513"/>
<path d="M17.9 1.91667C17.9 1.41041 18.3104 1 18.8167 1C19.3229 1 19.7333 1.41041 19.7333 1.91667V3.75C19.7333 4.25626 19.3229 4.66667 18.8167 4.66667C18.3104 4.66667 17.9 4.25626 17.9 3.75V1.91667Z" fill="#FDC513"/>
<path d="M11.0385 5.51819C10.6805 5.16021 10.6805 4.57981 11.0385 4.22183C11.3965 3.86385 11.9769 3.86385 12.3349 4.22183L13.6312 5.51819C13.9892 5.87617 13.9892 6.45657 13.6312 6.81455C13.2732 7.17253 12.6928 7.17253 12.3349 6.81455L11.0385 5.51819Z" fill="#FDC513"/>
<path d="M27.25 12.9167C26.7438 12.9167 26.3333 12.5063 26.3333 12C26.3333 11.4937 26.7438 11.0833 27.25 11.0833H29.0833C29.5896 11.0833 30 11.4937 30 12C30 12.5063 29.5896 12.9167 29.0833 12.9167H27.25Z" fill="#FDC513"/>
<path d="M25.2983 6.8146C24.9403 7.17258 24.3599 7.17258 24.002 6.8146C23.644 6.45662 23.644 5.87621 24.002 5.51823L25.2983 4.22187C25.6563 3.86389 26.2367 3.86389 26.5947 4.22187C26.9527 4.57985 26.9527 5.16025 26.5947 5.51823L25.2983 6.8146Z" fill="#FDC513"/>
<circle cx="6" cy="21.5" r="6" fill="white"/>
<circle cx="23" cy="20.5" r="7" fill="white"/>
<path d="M6 19.5H23V27.5H6L6 19.5Z" fill="white"/>
<circle cx="12.5" cy="15" r="6.5" fill="white"/>
</svg>
