<svg width="12" height="12" viewBox="0 0 12 12" fill="none" xmlns="http://www.w3.org/2000/svg">
<path fill-rule="evenodd" clip-rule="evenodd" d="M1.46324 0.251051C1.1285 -0.0836837 0.585787 -0.0836837 0.251052 0.251051C-0.0836838 0.585787 -0.0836838 1.1285 0.251052 1.46324L4.78782 6L0.251052 10.5368C-0.0836838 10.8715 -0.0836838 11.4142 0.251052 11.749C0.585787 12.0837 1.1285 12.0837 1.46324 11.749L6 7.21219L10.5368 11.749C10.8715 12.0837 11.4142 12.0837 11.749 11.749C12.0837 11.4142 12.0837 10.8715 11.749 10.5368L7.21219 6L11.749 1.46324C12.0837 1.1285 12.0837 0.585787 11.749 0.251052C11.4142 -0.0836836 10.8715 -0.0836836 10.5368 0.251052L6 4.78782L1.46324 0.251051Z" fill="black"/>
</svg>
