<svg width="30" height="30" viewBox="0 0 30 30" fill="none" xmlns="http://www.w3.org/2000/svg">
<circle cx="6" cy="15" r="6" fill="white"/>
<circle cx="23" cy="14" r="7" fill="white"/>
<path d="M6 13H23V21H6L6 13Z" fill="white"/>
<circle cx="12.5" cy="8.5" r="6.5" fill="white"/>
<path fill-rule="evenodd" clip-rule="evenodd" d="M12.3175 22.476C12.3948 22.1815 12.1746 21.8931 11.8724 21.8931H7.42519C7.00867 21.8931 6.80625 21.38 7.10904 21.0917L16.0693 12.5601C16.4066 12.239 16.9499 12.5653 16.8303 13.0171L15.7141 17.2325C15.636 17.5271 15.8563 17.8162 16.1589 17.8162H20.6098C21.0244 17.8162 21.2277 18.3254 20.9287 18.615L11.9251 27.3334C11.5895 27.6584 11.042 27.3335 11.1611 26.88L12.3175 22.476Z" fill="#F8D431"/>
</svg>
