<svg width="30" height="30" viewBox="0 0 30 30" fill="none" xmlns="http://www.w3.org/2000/svg">
<path d="M1.66917 16.6704C1.95049 16.5998 2.23181 16.6704 2.47797 16.847C3.39226 17.6238 4.4472 18.2594 5.60765 18.6832C6.69776 19.1069 7.89337 19.3188 9.1593 19.3188C12.0077 19.3188 14.6099 18.1535 16.4736 16.282C18.3373 14.4104 19.4978 11.7973 19.4978 8.93701C19.4978 7.73639 19.2868 6.57109 18.9351 5.51172C18.5483 4.38173 17.9857 3.35767 17.2472 2.47487C16.9307 2.08643 17.0011 1.52144 17.3879 1.20362C17.634 1.02706 17.9154 0.956439 18.1967 1.02706C21.1857 1.83925 23.7879 3.64017 25.6516 6.0414C27.4451 8.40732 28.5 11.3382 28.5 14.5163C28.5 18.3654 26.9527 21.8613 24.4209 24.4038C21.889 26.9463 18.4428 28.5 14.5747 28.5C11.3395 28.5 8.35051 27.37 5.95929 25.4985C3.53292 23.5916 1.77467 20.8726 1.03621 17.7651C0.895547 17.2707 1.17687 16.7763 1.66917 16.6704Z" fill="#F8D432"/>
</svg>
