<svg width="30" height="30" viewBox="0 0 30 30" fill="none" xmlns="http://www.w3.org/2000/svg">
<g clip-path="url(#clip0_312_86094)">
<path fill-rule="evenodd" clip-rule="evenodd" d="M13.75 1.25C13.75 0.559644 14.3096 0 15 0C15.6904 0 16.25 0.559644 16.25 1.25V3.75C16.25 4.44036 15.6904 5 15 5C14.3096 5 13.75 4.44036 13.75 3.75V1.25ZM23.125 15C23.125 16.25 21.875 16.25 21.875 16.25H15H8.125C8.125 16.25 6.875 16.25 6.875 15C6.875 10.5127 10.5127 6.875 15 6.875C19.4873 6.875 23.125 10.5127 23.125 15ZM26.25 16.25C25.5596 16.25 25 15.6904 25 15C25 14.3096 25.5596 13.75 26.25 13.75H28.75C29.4404 13.75 30 14.3096 30 15C30 15.6904 29.4404 16.25 28.75 16.25H26.25ZM0 15C0 15.6904 0.559644 16.25 1.25 16.25H3.75C4.44036 16.25 5 15.6904 5 15C5 14.3096 4.44036 13.75 3.75 13.75H1.25C0.559644 13.75 0 14.3096 0 15ZM25.6694 4.32138C25.1813 3.83323 24.3898 3.83323 23.9016 4.32138L22.1339 6.08915C21.6457 6.57731 21.6457 7.36876 22.1339 7.85692C22.622 8.34507 23.4135 8.34507 23.9016 7.85692L25.6694 6.08915C26.1576 5.60099 26.1576 4.80954 25.6694 4.32138ZM4.32138 6.08915C3.83323 5.601 3.83323 4.80954 4.32138 4.32139C4.80954 3.83323 5.60099 3.83323 6.08915 4.32139L7.85692 6.08915C8.34507 6.57731 8.34507 7.36876 7.85692 7.85692C7.36876 8.34507 6.57731 8.34507 6.08915 7.85692L4.32138 6.08915Z" fill="#FDC513"/>
<rect y="17.5" width="30" height="2.1875" rx="1.09375" fill="white"/>
<path fill-rule="evenodd" clip-rule="evenodd" d="M15.7083 29.7396C15.2999 30.0868 14.7001 30.0868 14.2916 29.7396L11.1666 27.0834C10.7064 26.6922 10.6504 26.0019 11.0416 25.5416C11.4328 25.0814 12.1231 25.0254 12.5833 25.4166L13.9062 26.5411V22.0312C13.9062 21.4272 14.3959 20.9375 15 20.9375C15.604 20.9375 16.0937 21.4272 16.0937 22.0312V26.5411L17.4166 25.4166C17.8769 25.0254 18.5671 25.0814 18.9583 25.5416C19.3496 26.0019 19.2936 26.6922 18.8333 27.0834L15.7083 29.7396Z" fill="white"/>
</g>
<defs>
<clipPath id="clip0_312_86094">
<rect width="30" height="30" fill="white"/>
</clipPath>
</defs>
</svg>
